<?xml version="1.0"?>
<svg xmlns="http://www.w3.org/2000/svg" xmlns:xlink="http://www.w3.org/1999/xlink" version="1.1" xml:space="preserve">
  <defs>

    <symbol id="loader" width="100%" height="100%" viewBox="22 22 44 44">
      <circle cx="44" cy="44" r="20.2" fill="none" stroke="currentColor" stroke-width="4"></circle>
    </symbol>

    <symbol id="burger" width="100%" height="100%" viewBox="0 0 48 48">
      <path d="M41,14H7a2,2,0,0,1,0-4H41A2,2,0,0,1,41,14Z" fill="currentColor" />
      <path d="M41,26H7a2,2,0,0,1,0-4H41A2,2,0,0,1,41,26Z" fill="currentColor" />
      <path d="M41,38H7a2,2,0,0,1,0-4H41A2,2,0,0,1,41,38Z" fill="currentColor" />
    </symbol>

    <symbol id="close" width="100%" height="100%" viewBox="0 0 24 24">
      <path d="M12 21C16.9706 21 21 16.9706 21 12C21 7.02944 16.9706 3 12 3C7.02944 3 3 7.02944 3 12C3 16.9706 7.02944 21 12 21Z" fill="transparent" stroke="currentColor" stroke-width="1.5" stroke-miterlimit="10" />
      <path d="M15 9L9 15" fill="transparent" stroke="currentColor" stroke-width="1.5" stroke-linecap="round" stroke-linejoin="round" />
      <path d="M15 15L9 9" fill="transparent" stroke="currentColor" stroke-width="1.5" stroke-linecap="round" stroke-linejoin="round" />
    </symbol>

    <symbol id="phone" width="100%" height="100%" viewBox="0 0 24 24">
      <path d="M8.67187 11.6998C9.44364 13.2935 10.7324 14.579 12.3281 15.3467C12.4458 15.4024 12.576 15.4265 12.7059 15.4167C12.8358 15.4068 12.9608 15.3633 13.0687 15.2904L15.4125 13.7248C15.516 13.6546 15.6357 13.6117 15.7603 13.6002C15.8849 13.5887 16.0104 13.609 16.125 13.6592L20.5125 15.5435C20.6625 15.6059 20.7877 15.7159 20.869 15.8565C20.9504 15.9971 20.9832 16.1606 20.9625 16.3217C20.8234 17.407 20.2937 18.4046 19.4723 19.1276C18.6509 19.8506 17.5943 20.2495 16.5 20.2498C13.1185 20.2498 9.87548 18.9065 7.48439 16.5154C5.0933 14.1243 3.75 10.8813 3.75 7.49979C3.75025 6.40553 4.1492 5.34886 4.87221 4.5275C5.59522 3.70613 6.59274 3.17635 7.67812 3.03729C7.83922 3.01659 8.00266 3.04943 8.14326 3.13074C8.28386 3.21206 8.39384 3.33733 8.45625 3.48729L10.3406 7.88416C10.3896 7.99699 10.4101 8.12013 10.4003 8.24275C10.3905 8.36537 10.3507 8.48369 10.2844 8.58729L8.71875 10.9685C8.64905 11.0762 8.60814 11.2 8.59993 11.328C8.59172 11.4561 8.61649 11.5841 8.67187 11.6998V11.6998Z" fill="transparent" stroke="currentColor" stroke-width="1.5" stroke-linecap="round" stroke-linejoin="round" />
    </symbol>

    <symbol id="tel" width="100%" height="100%" viewBox="0 0 24 24">
      <path d="M14 2C14 2 16.2 2.2 19 5C21.8 7.8 22 10 22 10" fill="transparent" stroke="currentColor" stroke-width="2" stroke-linecap="round" />
      <path d="M14.207 5.53516C14.207 5.53516 15.197 5.818 16.6819 7.30292C18.1668 8.78785 18.4497 9.7778 18.4497 9.7778" fill="transparent" stroke="currentColor" stroke-width="2" stroke-linecap="round" />
      <path d="M10.0376 5.31617L10.6866 6.4791C11.2723 7.52858 11.0372 8.90532 10.1147 9.8278C10.1147 9.8278 10.1147 9.8278 10.1147 9.8278C10.1146 9.82792 8.99588 10.9468 11.0245 12.9755C13.0525 15.0035 14.1714 13.8861 14.1722 13.8853C14.1722 13.8853 14.1722 13.8853 14.1722 13.8853C15.0947 12.9628 16.4714 12.7277 17.5209 13.3134L18.6838 13.9624C20.2686 14.8468 20.4557 17.0692 19.0628 18.4622C18.2258 19.2992 17.2004 19.9505 16.0669 19.9934C14.1588 20.0658 10.9183 19.5829 7.6677 16.3323C4.41713 13.0817 3.93421 9.84122 4.00655 7.93309C4.04952 6.7996 4.7008 5.77423 5.53781 4.93723C6.93076 3.54428 9.15317 3.73144 10.0376 5.31617Z" fill="transparent" stroke="currentColor" stroke-width="2" stroke-linecap="round" />
    </symbol>

    <symbol id="email" width="100%" height="100%" viewBox="0 0 24 24">
      <path d="M2.25 7.125C2.25 6.47853 2.50681 5.85855 2.96393 5.40143C3.42105 4.94431 4.04103 4.6875 4.6875 4.6875H19.3125C19.959 4.6875 20.579 4.94431 21.0361 5.40143C21.4932 5.85855 21.75 6.47853 21.75 7.125V16.875C21.75 17.5215 21.4932 18.1415 21.0361 18.5986C20.579 19.0557 19.959 19.3125 19.3125 19.3125H4.6875C4.04103 19.3125 3.42105 19.0557 2.96393 18.5986C2.50681 18.1415 2.25 17.5215 2.25 16.875V7.125ZM4.6875 5.90625C4.36427 5.90625 4.05427 6.03465 3.82571 6.26321C3.59715 6.49177 3.46875 6.80177 3.46875 7.125V7.38947L12 12.5082L20.5312 7.38947V7.125C20.5312 6.80177 20.4028 6.49177 20.1743 6.26321C19.9457 6.03465 19.6357 5.90625 19.3125 5.90625H4.6875ZM20.5312 8.81053L14.7934 12.2535L20.5312 15.7842V8.81053ZM20.4898 17.1907L13.6161 12.9604L12 13.9293L10.3839 12.9604L3.51019 17.1894C3.57944 17.4488 3.73239 17.678 3.94527 17.8415C4.15815 18.005 4.41906 18.0937 4.6875 18.0938H19.3125C19.5808 18.0938 19.8416 18.0053 20.0544 17.842C20.2673 17.6787 20.4203 17.4498 20.4898 17.1907ZM3.46875 15.7842L9.20663 12.2535L3.46875 8.81053V15.7842Z" fill="currentColor" />
    </symbol>

    <symbol id="geo" width="100%" height="100%" viewBox="0 0 24 24">
      <path d="M17.0773 13.1456C16.4387 14.4399 15.5734 15.7294 14.6886 16.8872C13.8492 17.9787 12.9517 19.0243 12 20.0194C11.0483 19.0243 10.1508 17.9787 9.31144 16.8872C8.42663 15.7294 7.56131 14.4399 6.92269 13.1456C6.27675 11.8379 5.90625 10.6131 5.90625 9.5625C5.90625 7.94634 6.54827 6.39637 7.69107 5.25357C8.83387 4.11077 10.3838 3.46875 12 3.46875C13.6162 3.46875 15.1661 4.11077 16.3089 5.25357C17.4517 6.39637 18.0938 7.94634 18.0938 9.5625C18.0938 10.6131 17.722 11.8379 17.0773 13.1456ZM12 21.75C12 21.75 19.3125 14.8202 19.3125 9.5625C19.3125 7.6231 18.5421 5.76314 17.1707 4.39178C15.7994 3.02042 13.9394 2.25 12 2.25C10.0606 2.25 8.20064 3.02042 6.82928 4.39178C5.45792 5.76314 4.6875 7.6231 4.6875 9.5625C4.6875 14.8202 12 21.75 12 21.75Z" fill="currentColor" />
      <path d="M12 12C11.3535 12 10.7335 11.7432 10.2764 11.2861C9.81931 10.829 9.5625 10.209 9.5625 9.5625C9.5625 8.91603 9.81931 8.29605 10.2764 7.83893C10.7335 7.38181 11.3535 7.125 12 7.125C12.6465 7.125 13.2665 7.38181 13.7236 7.83893C14.1807 8.29605 14.4375 8.91603 14.4375 9.5625C14.4375 10.209 14.1807 10.829 13.7236 11.2861C13.2665 11.7432 12.6465 12 12 12ZM12 13.2188C12.9697 13.2188 13.8997 12.8335 14.5854 12.1479C15.271 11.4622 15.6562 10.5322 15.6562 9.5625C15.6562 8.5928 15.271 7.66282 14.5854 6.97714C13.8997 6.29146 12.9697 5.90625 12 5.90625C11.0303 5.90625 10.1003 6.29146 9.41464 6.97714C8.72896 7.66282 8.34375 8.5928 8.34375 9.5625C8.34375 10.5322 8.72896 11.4622 9.41464 12.1479C10.1003 12.8335 11.0303 13.2187 12 13.2188Z" fill="currentColor" />
    </symbol>

    <symbol id="basket" width="100%" height="100%" viewBox="0 0 24 24">
      <path d="M17.25 17.25H6.54375L3.92813 2.86875C3.89752 2.69653 3.80768 2.54042 3.67415 2.42743C3.54062 2.31444 3.37179 2.25168 3.19687 2.25H1.5" fill="transparent" stroke="currentColor" stroke-width="1.5" stroke-linecap="round" stroke-linejoin="round" />
      <path d="M7.5 21C8.53553 21 9.375 20.1605 9.375 19.125C9.375 18.0895 8.53553 17.25 7.5 17.25C6.46447 17.25 5.625 18.0895 5.625 19.125C5.625 20.1605 6.46447 21 7.5 21Z" fill="transparent" stroke="currentColor" stroke-width="1.5" stroke-linecap="round" stroke-linejoin="round" />
      <path d="M17.25 21C18.2855 21 19.125 20.1605 19.125 19.125C19.125 18.0895 18.2855 17.25 17.25 17.25C16.2145 17.25 15.375 18.0895 15.375 19.125C15.375 20.1605 16.2145 21 17.25 21Z" fill="transparent" stroke="currentColor" stroke-width="1.5" stroke-linecap="round" stroke-linejoin="round" />
      <path d="M5.85938 13.5H17.6344C17.985 13.5011 18.3247 13.3785 18.5939 13.1539C18.8631 12.9293 19.0445 12.617 19.1063 12.2719L20.25 6H4.5" fill="transparent" stroke="currentColor" stroke-width="1.5" stroke-linecap="round" stroke-linejoin="round" />
    </symbol>

    <symbol id="user" width="100%" height="100%" viewBox="0 0 24 24">
      <path d="M15.9375 9.375C15.9375 10.4193 15.5227 11.4208 14.7842 12.1592C14.0458 12.8977 13.0443 13.3125 12 13.3125C10.9557 13.3125 9.95419 12.8977 9.21577 12.1592C8.47734 11.4208 8.0625 10.4193 8.0625 9.375C8.0625 8.33071 8.47734 7.32919 9.21577 6.59077C9.95419 5.85234 10.9557 5.4375 12 5.4375C13.0443 5.4375 14.0458 5.85234 14.7842 6.59077C15.5227 7.32919 15.9375 8.33071 15.9375 9.375Z" fill="currentColor" />
      <path fill-rule="evenodd" clip-rule="evenodd" d="M1.5 12C1.5 9.21523 2.60625 6.54451 4.57538 4.57538C6.54451 2.60625 9.21523 1.5 12 1.5C14.7848 1.5 17.4555 2.60625 19.4246 4.57538C21.3938 6.54451 22.5 9.21523 22.5 12C22.5 14.7848 21.3938 17.4555 19.4246 19.4246C17.4555 21.3938 14.7848 22.5 12 22.5C9.21523 22.5 6.54451 21.3938 4.57538 19.4246C2.60625 17.4555 1.5 14.7848 1.5 12ZM12 2.8125C10.2698 2.81259 8.57486 3.30123 7.11015 4.22216C5.64545 5.1431 4.47056 6.4589 3.7207 8.01813C2.97085 9.57736 2.67651 11.3166 2.87156 13.0358C3.06661 14.7549 3.74313 16.384 4.82325 17.7356C5.75513 16.2341 7.80656 14.625 12 14.625C16.1934 14.625 18.2436 16.2328 19.1768 17.7356C20.2569 16.384 20.9334 14.7549 21.1284 13.0358C21.3235 11.3166 21.0292 9.57736 20.2793 8.01813C19.5294 6.4589 18.3545 5.1431 16.8898 4.22216C15.4251 3.30123 13.7302 2.81259 12 2.8125Z" fill="currentColor" />
    </symbol>

    <symbol id="search" width="100%" height="100%" viewBox="0 0 24 24">
      <path d="M21.7094 20.2894L17.9994 16.6094C19.4395 14.8138 20.1369 12.5347 19.9482 10.2407C19.7595 7.94672 18.6991 5.8122 16.9849 4.27606C15.2708 2.73992 13.0332 1.91893 10.7323 1.98189C8.43145 2.04485 6.24214 2.98698 4.61456 4.61456C2.98698 6.24214 2.04485 8.43145 1.98189 10.7323C1.91893 13.0332 2.73992 15.2708 4.27606 16.9849C5.8122 18.6991 7.94672 19.7595 10.2407 19.9482C12.5347 20.1369 14.8138 19.4395 16.6094 17.9994L20.2894 21.6794C20.3824 21.7731 20.493 21.8475 20.6148 21.8983C20.7367 21.9491 20.8674 21.9752 20.9994 21.9752C21.1314 21.9752 21.2621 21.9491 21.384 21.8983C21.5059 21.8475 21.6165 21.7731 21.7094 21.6794C21.8897 21.493 21.9904 21.2438 21.9904 20.9844C21.9904 20.7251 21.8897 20.4759 21.7094 20.2894ZM10.9994 17.9994C9.61495 17.9994 8.26157 17.5889 7.11042 16.8197C5.95928 16.0505 5.06207 14.9573 4.53226 13.6782C4.00245 12.3991 3.86382 10.9917 4.13392 9.63378C4.40402 8.27592 5.0707 7.02864 6.04967 6.04967C7.02864 5.0707 8.27592 4.40402 9.63378 4.13392C10.9917 3.86382 12.3991 4.00245 13.6782 4.53226C14.9573 5.06207 16.0505 5.95928 16.8197 7.11042C17.5889 8.26157 17.9994 9.61495 17.9994 10.9994C17.9994 12.8559 17.2619 14.6364 15.9492 15.9492C14.6364 17.2619 12.8559 17.9994 10.9994 17.9994Z" fill="currentColor" />
    </symbol>

    <symbol id="arrow-left" width="100%" height="100%" viewBox="0 0 22 22">
      <path d="M13.625 5.75L8.375 11L13.625 16.25" fill="transparent" stroke="currentColor" stroke-width="1.96875" stroke-linecap="round" />
    </symbol>

    <symbol id="arrow-right" width="100%" height="100%" viewBox="0 0 22 22">
      <path d="M8.375 5.75L13.625 11L8.375 16.25" fill="transparent" stroke="currentColor" stroke-width="1.96875" stroke-linecap="round" />
    </symbol>

    <symbol id="arrow-bottom" width="100%" height="100%" viewBox="0 0 22 22">
      <path d="M16.5 8.25L11 13.75L5.5 8.25" fill="transparent" stroke="currentColor" stroke-width="2" stroke-linecap="round" />
    </symbol>

    <symbol id="arrow-btn" width="100%" height="100%" viewBox="0 0 14 14">
      <path fill-rule="evenodd" clip-rule="evenodd" d="M0.875 6.99958C0.875 6.88354 0.921094 6.77226 1.00314 6.69022C1.08519 6.60817 1.19647 6.56208 1.3125 6.56208H11.6314L8.87775 3.80933C8.7956 3.72718 8.74945 3.61575 8.74945 3.49958C8.74945 3.3834 8.7956 3.27198 8.87775 3.18983C8.9599 3.10768 9.07132 3.06152 9.1875 3.06152C9.30368 3.06152 9.4151 3.10768 9.49725 3.18983L12.9972 6.68983C13.038 6.73047 13.0703 6.77874 13.0924 6.8319C13.1144 6.88505 13.1258 6.94203 13.1258 6.99958C13.1258 7.05712 13.1144 7.1141 13.0924 7.16725C13.0703 7.22041 13.038 7.26869 12.9972 7.30933L9.49725 10.8093C9.4151 10.8915 9.30368 10.9376 9.1875 10.9376C9.07132 10.9376 8.9599 10.8915 8.87775 10.8093C8.7956 10.7272 8.74945 10.6158 8.74945 10.4996C8.74945 10.3834 8.7956 10.272 8.87775 10.1898L11.6314 7.43708H1.3125C1.19647 7.43708 1.08519 7.39098 1.00314 7.30894C0.921094 7.22689 0.875 7.11561 0.875 6.99958Z" fill="currentColor" />
    </symbol>

    <symbol id="play" width="100%" height="100%" viewBox="0 0 16 21">
      <path fill-rule="evenodd" clip-rule="evenodd" d="M1.84154 0.00447464C2.15622 0.0270138 2.45863 0.135729 2.71563 0.31871L14.7469 8.91246C14.9697 9.07145 15.1513 9.28135 15.2766 9.5247C15.4019 9.76805 15.4673 10.0378 15.4673 10.3115C15.4673 10.5852 15.4019 10.855 15.2766 11.0983C15.1513 11.3417 14.9697 11.5516 14.7469 11.7106L2.71563 20.3043C2.45863 20.4873 2.15622 20.596 1.84154 20.6186C1.52686 20.6411 1.21204 20.5766 0.931589 20.4321C0.651134 20.2876 0.415859 20.0687 0.251539 19.7994C0.0872192 19.5301 0.00019455 19.2208 0 18.9053V1.71777C0.00019455 1.40229 0.0872192 1.09294 0.251539 0.823626C0.415859 0.55431 0.651134 0.335419 0.931589 0.190931C1.21204 0.0464439 1.52686 -0.0180645 1.84154 0.00447464Z" fill="currentColor" />
    </symbol>

    <symbol id="sliding-doors" width="100%" height="100%" viewBox="0 0 72 72">
      <path fill-rule="evenodd" clip-rule="evenodd" d="M72 1.73494H0V0H72V1.73494ZM32.8889 6.07229H1.77778V65.0602H32.8889V6.07229ZM1.77778 4.33735H0V6.07229V65.0602V66.7952H1.77778H4.88889C4.15251 66.7952 3.55556 67.3777 3.55556 68.0964C3.55556 68.815 4.15251 69.3976 4.88889 69.3976H0V72H72V69.3976H29.7778C30.5142 69.3976 31.1111 68.815 31.1111 68.0964C31.1111 67.3777 30.5142 66.7952 29.7778 66.7952H32.8889H34.6667V65.0602V6.07229V4.33735H32.8889H1.77778ZM29.7778 66.7952C29.0414 66.7952 28.4444 67.3777 28.4444 68.0964C28.4444 68.815 29.0414 69.3976 29.7778 69.3976H4.88889C5.62527 69.3976 6.22222 68.815 6.22222 68.0964C6.22222 67.3777 5.62527 66.7952 4.88889 66.7952H29.7778Z" fill="currentColor" />
    </symbol>

    <symbol id="suspended-doors" width="100%" height="100%" viewBox="0 0 74 72">
      <path fill-rule="evenodd" clip-rule="evenodd" d="M29.6914 2.7871H74V0H0V2.7871H5.02469C4.26786 2.7871 3.65432 3.41101 3.65432 4.18064C3.65432 4.95028 4.26786 5.57419 5.02469 5.57419H0V72H35.6296V5.57419H29.6914C30.4482 5.57419 31.0617 4.95028 31.0617 4.18064C31.0617 3.41101 30.4482 2.7871 29.6914 2.7871ZM29.6914 2.7871C28.9345 2.7871 28.321 3.41101 28.321 4.18064C28.321 4.95028 28.9345 5.57419 29.6914 5.57419H5.02469C5.78153 5.57419 6.39506 4.95028 6.39506 4.18064C6.39506 3.41101 5.78153 2.7871 5.02469 2.7871H29.6914ZM1.37037 6.96774H34.2593V70.6065H1.37037V6.96774Z" fill="currentColor" />
    </symbol>

    <symbol id="folding-doors" width="100%" height="100%" viewBox="0 0 70 72">
      <path fill-rule="evenodd" clip-rule="evenodd" d="M70 0H0V64.842H1.68675V1.68421H19.3976C18.6989 1.68421 18.1325 2.24974 18.1325 2.94736C18.1325 3.64363 18.6967 4.20832 19.3935 4.21051H18.5542V64.421L46.5942 71.9942L70 63.9999V1.68421V0ZM19.3976 1.68421H65.0689L46.5771 8.00009L20.241 4.21051H19.4017C20.0985 4.20832 20.6627 3.64363 20.6627 2.94736C20.6627 2.24974 20.0963 1.68421 19.3976 1.68421ZM45.1205 69.8514L20.241 63.1318V5.91212L45.1205 9.4921V69.8514ZM47.6506 69.8533L68.3133 62.796V2.35612L47.6506 9.41345V69.8533Z" fill="currentColor" />
    </symbol>

    <symbol id="swing-doors" width="100%" height="100%" viewBox="0 0 44 72">
      <path fill-rule="evenodd" clip-rule="evenodd" d="M0 0H41.5094H43.1698H44L44 64.7537H43.2548L11.6227 72V7.21099L35.0757 1.66035H1.66038V63.9235H0V0ZM41.5094 63.4199L41.5094 2.0222L13.2831 8.56243V69.9601L41.5094 63.4199Z" fill="currentColor" />
    </symbol>

    <symbol id="attic-doors" width="100%" height="100%" viewBox="0 0 70 72">
      <path fill-rule="evenodd" clip-rule="evenodd" d="M36.3919 1.73494H0V0H37.0649L69.8724 29.517V31.6627L36.3919 1.73494ZM1.7284 6.07229H31.9753V65.0602H1.7284V6.07229ZM0 66.7952V4.33735H33.7037V66.7952H0ZM68.2273 65.0602H37.2048V8.29993L68.2273 36.3259V65.0602ZM70 35.5663L35.4321 4.33735V66.7952H70V35.5663ZM0 72H70V69.3976H0V72Z" fill="currentColor" />
    </symbol>

    <symbol id="facade-doors" width="100%" height="100%" viewBox="0 0 72 72">
      <path fill-rule="evenodd" clip-rule="evenodd" d="M0 0H72V66.1408L41.6386 72V5.6755L62.2399 1.69979H9.76008L30.3614 5.6755V72L0 66.1408V0ZM1.73494 1.88353V64.7431L28.6265 69.9327V7.07314L1.73494 1.88353ZM70.2651 1.88353L43.3735 7.07314V69.9327L70.2651 64.7431V1.88353Z" fill="currentColor" />
    </symbol>

    <symbol id="interior-doors" width="100%" height="100%" viewBox="0 0 72 72">
      <path fill-rule="evenodd" clip-rule="evenodd" d="M72 1.73494H0V0H72V1.73494ZM7.10513 20.6526L15.4564 12.157L16.7393 13.358L8.38802 21.8536L7.10513 20.6526ZM6.92847 14.7598L9.48703 12.1574L10.7698 13.3586L8.21129 15.961L6.92847 14.7598ZM33.3333 6.07229H1.77778V65.0602H33.3333V6.07229ZM0 4.33735V66.7952H35.1111V4.33735H0ZM41.7777 19.9518H38.6666V54.6506L56 54.6506C54.0363 54.6506 52.4444 53.0971 52.4444 51.1807C52.4444 49.2644 54.0363 47.7108 56 47.7108H64.8889C66.8526 47.7108 68.4444 49.2644 68.4444 51.1807C68.4444 53.0971 66.8526 54.6506 64.8889 54.6506L70.2222 54.6506V19.9518H67.5556H57.7778H55.1113V21.0482L62.1286 24.4723C62.866 24.8322 63.2532 25.6396 63.0637 26.4227C62.8743 27.2058 62.158 27.759 61.3335 27.759H47.1113C46.2868 27.759 45.5705 27.2058 45.3811 26.4227C45.1917 25.6396 45.5788 24.8322 46.3163 24.4723L53.3335 21.0482V19.9518H41.7777ZM70.2222 18.2169H67.5556V12.1446H57.7778V18.2169H55.111V9.54217H41.7777V18.2169H38.6666V6.07229H70.2222V18.2169ZM65.7778 13.8795V18.2169H59.5556V13.8795H65.7778ZM43.5555 18.2169H53.3333V11.2771H43.5555V18.2169ZM72 66.7952H36.8889V4.33735H72V66.7952ZM38.6666 56.3855V65.0602H70.2222V56.3855H38.6666ZM56 49.4458H64.8889C65.8707 49.4458 66.6667 50.2225 66.6667 51.1807C66.6667 52.1389 65.8707 52.9157 64.8889 52.9157H56C55.0182 52.9157 54.2222 52.1389 54.2222 51.1807C54.2222 50.2225 55.0182 49.4458 56 49.4458ZM57.3334 59.8554H50.6667V58.1205H57.3334V59.8554ZM61.3335 26.0241H47.1113L54.2224 22.5542L61.3335 26.0241ZM0 72H72V69.3976H0V72Z" fill="currentColor" />
    </symbol>

    <symbol id="protect" width="100%" height="100%" viewBox="0 0 44 50">
      <path fill-rule="evenodd" clip-rule="evenodd" d="M43.4344 8.4125C43.3166 7.51481 42.948 6.66855 42.3709 5.97094C41.7938 5.27333 41.0316 4.75266 40.1719 4.46875C38.1156 3.79687 34.6188 2.6875 31.15 1.75C27.7594 0.828125 24.1563 0 22 0C19.8438 0 16.2406 0.828125 12.85 1.75C9.82128 2.58351 6.81312 3.49003 3.82814 4.46875C2.96843 4.75266 2.20624 5.27333 1.62913 5.97094C1.05203 6.66855 0.683414 7.51481 0.565642 8.4125C-1.29686 22.4031 3.02502 32.7719 8.26877 39.6312C10.4925 42.5655 13.1439 45.1495 16.1344 47.2969C17.1685 48.0399 18.2641 48.6934 19.4094 49.25C20.2875 49.6625 21.225 50 22 50C22.775 50 23.7156 49.6625 24.5906 49.25C25.7359 48.6933 26.8315 48.0399 27.8656 47.2969C30.8562 45.1495 33.5076 42.5656 35.7313 39.6312C40.975 32.7719 45.2969 22.4031 43.4344 8.4125ZM23.8942 47.7952C24.9538 47.2796 25.9675 46.6747 26.9245 45.9871L26.9249 45.9867C29.7844 43.9335 32.3196 41.4628 34.4458 38.6571L34.4499 38.6517C39.4648 32.0916 43.6353 22.1443 41.8356 8.62534L41.8352 8.62231C41.7569 8.02548 41.5118 7.46284 41.1281 6.99903C40.7449 6.53583 40.239 6.18996 39.6684 6.00104C37.6223 5.33254 34.1572 4.23353 30.7292 3.30704L30.7268 3.3064C27.2996 2.37458 23.9048 1.6129 22 1.6129C20.0957 1.6129 16.702 2.37422 13.2757 3.30573C10.2733 4.13201 7.29142 5.03062 4.33247 6.00078C3.76148 6.18964 3.25527 6.53562 2.8719 6.99903C2.48821 7.46284 2.24314 8.02548 2.16484 8.62231L2.16444 8.62534C0.364736 22.1443 4.53518 32.0916 9.55014 38.6517L9.55425 38.6571C11.6805 41.4627 14.2157 43.9335 17.0751 45.9867L17.0756 45.9871C18.0322 46.6744 19.0455 47.2791 20.1046 47.7946C20.95 48.1909 21.6072 48.3871 22 48.3871C22.3934 48.3871 23.0547 48.1901 23.8942 47.7952ZM39.2841 11.0882C39.1885 10.3353 38.8896 9.62557 38.4215 9.04048C37.9534 8.45538 37.3353 8.01869 36.638 7.78058C34.9702 7.21707 32.1341 6.28663 29.3207 5.50033C26.5707 4.72715 23.6484 4.03259 21.8995 4.03259C20.1507 4.03259 17.2283 4.72715 14.4783 5.50033C12.0218 6.19941 9.58203 6.95971 7.16104 7.78058C6.46376 8.01869 5.84558 8.45538 5.37751 9.04048C4.90944 9.62557 4.61048 10.3353 4.51496 11.0882C3.00436 22.8223 6.50966 31.5187 10.7626 37.2717C12.5662 39.7327 14.7166 41.8999 17.1421 43.7009C17.9808 44.3242 18.8695 44.8722 19.7984 45.339C20.5106 45.685 21.2709 45.9681 21.8995 45.9681C22.5281 45.9681 23.291 45.685 24.0007 45.339C24.9295 44.8722 25.8182 44.3242 26.6569 43.7009C29.0824 41.9 31.2329 39.7327 33.0364 37.2717C37.2894 31.5187 40.7947 22.8223 39.2841 11.0882ZM23.2852 43.8935C24.1271 43.4697 24.9333 42.9722 25.6949 42.4063L25.6954 42.406C27.99 40.7022 30.0264 38.6505 31.7354 36.3183L31.7394 36.3129C35.7709 30.8595 39.1365 22.5742 37.6844 11.2942L37.684 11.2912C37.6253 10.8287 37.4422 10.3983 37.162 10.048C36.8827 9.69887 36.5196 9.44494 36.1187 9.30761C34.4614 8.74765 31.6579 7.82827 28.8866 7.05371L28.8841 7.05304C26.096 6.26911 23.3885 5.6455 21.8995 5.6455C20.4109 5.6455 17.7046 6.26875 14.9173 7.05235C12.488 7.74373 10.0752 8.49563 7.6809 9.3074C7.27975 9.44469 6.91646 9.6987 6.63699 10.048C6.35682 10.3983 6.17371 10.8288 6.11503 11.2912L6.11466 11.2942C4.66251 22.5742 8.02814 30.8595 12.0596 36.3129L12.0636 36.3183C13.7727 38.6504 15.8091 40.7021 18.1037 42.406L18.1041 42.4063C18.8654 42.972 19.6712 43.4692 20.5128 43.8929C21.193 44.2225 21.6654 44.3552 21.8995 44.3552C22.1342 44.3552 22.6102 44.2217 23.2852 43.8935ZM30.5077 18.3374C30.8367 18.0371 30.8598 17.527 30.5595 17.1981C30.2592 16.8692 29.7491 16.846 29.4202 17.1463L20.7151 25.0945L16.8246 21.2039C16.5096 20.889 15.999 20.889 15.6841 21.2039C15.3691 21.5188 15.3691 22.0294 15.6841 22.3444L20.1195 26.7799C20.4244 27.0847 20.9152 27.0959 21.2336 26.8052L30.5077 18.3374Z" fill="currentColor" />
    </symbol>

    <symbol id="delivery" width="100%" height="100%" viewBox="0 0 46 50">
      <path fill-rule="evenodd" clip-rule="evenodd" d="M7.20602 5.86379L3.19861 1.85637C2.88244 1.5402 2.36981 1.5402 2.05364 1.85637C1.73746 2.17255 1.73746 2.68517 2.05364 3.00135L6.06105 7.00876C6.37722 7.32494 6.88985 7.32494 7.20602 7.00876C7.5222 6.69258 7.5222 6.17996 7.20602 5.86379ZM0.908662 0.711396C-0.0398663 1.65992 -0.0398664 3.19779 0.908662 4.14632L4.91607 8.15374C5.55829 8.79596 6.47068 9.00335 7.28739 8.77591V37.869C4.12258 38.0773 1.62006 40.7103 1.62006 43.9279C1.62006 47.2814 4.33865 50 7.6922 50C10.1822 50 12.3221 48.5013 13.2591 46.3567H39.4479L41.9102 47.8341C43.0591 48.5234 44.5449 48.2144 45.3237 47.1241C46.18 45.9252 45.8552 44.2532 44.6122 43.4622L41.7261 41.6256C41.7162 41.6193 41.7063 41.6133 41.6962 41.6075V12.7575C41.6962 12.3103 41.3337 11.9479 40.8866 11.9479H29.5519H22.6702H10.5259C10.0787 11.9479 9.71625 12.3103 9.71625 12.7575V36.6413H11.3355V13.5671H21.8605V21.6633C21.8605 22.1104 22.223 22.4729 22.6702 22.4729H29.5519C29.9991 22.4729 30.3615 22.1104 30.3615 21.6633V13.5671H40.077V41.499H15.7884C15.3413 41.499 14.9788 41.8615 14.9788 42.3086C14.9788 42.7558 15.3413 43.1182 15.7884 43.1182H41.0556L43.7428 44.8283C44.2027 45.1209 44.3228 45.7394 44.006 46.1829C43.7179 46.5863 43.1683 46.7006 42.7433 46.4456L40.0887 44.8528C39.9629 44.7774 39.8189 44.7375 39.6722 44.7375H13.7108C13.7461 44.4726 13.7643 44.2024 13.7643 43.9279C13.7643 40.9902 11.6783 38.5398 8.90663 37.9772V7.49496C8.90663 7.44011 8.90118 7.38652 8.89078 7.33473C9.23813 6.46082 9.0582 5.42601 8.351 4.71881L4.34359 0.711396C3.39506 -0.237132 1.85719 -0.237132 0.908662 0.711396ZM12.0333 44.9237C12.1065 44.6035 12.1451 44.2702 12.1451 43.9279C12.1451 41.4686 10.1515 39.4749 7.6922 39.4749C5.23293 39.4749 3.2393 41.4686 3.2393 43.9279C3.2393 46.3871 5.23293 48.3808 7.6922 48.3808C9.50759 48.3808 11.0692 47.2944 11.7625 45.7363C11.748 45.6756 11.7403 45.6123 11.7403 45.5471C11.7403 45.2963 11.8543 45.0722 12.0333 44.9237ZM7.6922 45.1423C8.36291 45.1423 8.90663 44.5986 8.90663 43.9279C8.90663 43.2571 8.36291 42.7134 7.6922 42.7134C7.02149 42.7134 6.47777 43.2571 6.47777 43.9279C6.47777 44.5986 7.02149 45.1423 7.6922 45.1423ZM7.6922 46.7615C9.25719 46.7615 10.5259 45.4928 10.5259 43.9279C10.5259 42.3629 9.25719 41.0942 7.6922 41.0942C6.12721 41.0942 4.85853 42.3629 4.85853 43.9279C4.85853 45.4928 6.12721 46.7615 7.6922 46.7615ZM23.4798 20.8537V13.5671H28.7423V20.8537H23.4798ZM15.7884 32.1884C15.3413 32.1884 14.9788 32.5508 14.9788 32.998C14.9788 33.4451 15.3413 33.8076 15.7884 33.8076H25.9086C26.3558 33.8076 26.7183 33.4451 26.7183 32.998C26.7183 32.5508 26.3558 32.1884 25.9086 32.1884H15.7884ZM15.7884 35.022C15.3413 35.022 14.9788 35.3845 14.9788 35.8317C14.9788 36.2788 15.3413 36.6413 15.7884 36.6413H22.6702C23.1173 36.6413 23.4798 36.2788 23.4798 35.8317C23.4798 35.3845 23.1173 35.022 22.6702 35.022H15.7884Z" fill="currentColor" />
    </symbol>

    <symbol id="certificate" width="100%" height="100%" viewBox="0 0 50 50">
      <path fill-rule="evenodd" clip-rule="evenodd" d="M0.833496 3.33333C0.833496 1.49238 2.32588 0 4.16683 0H45.8335C47.6744 0 49.1668 1.49238 49.1668 3.33333V32.9167C49.1668 33.3769 48.7937 33.75 48.3335 33.75C47.8733 33.75 47.5002 33.3769 47.5002 32.9167V3.33333C47.5002 2.41286 46.754 1.66667 45.8335 1.66667H4.16683C3.24636 1.66667 2.50016 2.41286 2.50016 3.33333V46.6667C2.50016 47.5871 3.24636 48.3333 4.16683 48.3333H16.6668C17.1271 48.3333 17.5002 48.7064 17.5002 49.1667C17.5002 49.6269 17.1271 50 16.6668 50H4.16683C2.32588 50 0.833496 48.5076 0.833496 46.6667V3.33333ZM6.66683 11.25C6.66683 10.7898 7.03993 10.4167 7.50016 10.4167H41.2502C41.7104 10.4167 42.0835 10.7898 42.0835 11.25C42.0835 11.7102 41.7104 12.0833 41.2502 12.0833H7.50016C7.03993 12.0833 6.66683 11.7102 6.66683 11.25ZM6.66683 19.5833C6.66683 19.1231 7.03993 18.75 7.50016 18.75H22.9168C23.3771 18.75 23.7502 19.1231 23.7502 19.5833C23.7502 20.0436 23.3771 20.4167 22.9168 20.4167H7.50016C7.03993 20.4167 6.66683 20.0436 6.66683 19.5833ZM6.66683 27.9167C6.66683 27.4564 7.03993 27.0833 7.50016 27.0833H20.8335C21.2937 27.0833 21.6668 27.4564 21.6668 27.9167C21.6668 28.3769 21.2937 28.75 20.8335 28.75H7.50016C7.03993 28.75 6.66683 28.3769 6.66683 27.9167ZM35.4168 34.1667C39.3288 34.1667 42.5002 30.9954 42.5002 27.0833C42.5002 23.1713 39.3288 20 35.4168 20C31.5048 20 28.3335 23.1713 28.3335 27.0833C28.3335 30.9954 31.5048 34.1667 35.4168 34.1667ZM41.474 45.6907L36.6721 35.744C38.4849 35.4836 40.1182 34.6674 41.3939 33.4738L46.2506 43.1871L43.0431 42.8663L41.474 45.6907ZM44.1668 27.0833C44.1668 28.9557 43.5787 30.6908 42.5771 32.1138L42.5841 32.1274L49.0936 45.1464L43.9678 44.6338L41.3702 49.3094L34.9635 36.0385L28.5569 49.3094L25.9593 44.6338L20.8335 45.1464L27.6321 31.206C27.6424 31.1854 27.6535 31.1654 27.6652 31.1461C27.0276 29.932 26.6668 28.5498 26.6668 27.0833C26.6668 22.2508 30.5843 18.3333 35.4168 18.3333C40.2493 18.3333 44.1668 22.2508 44.1668 27.0833ZM23.6765 43.1871L28.7407 32.7397C29.9149 34.1242 31.512 35.1387 33.3324 35.5836L28.4531 45.6907L26.884 42.8663L23.6765 43.1871Z" fill="currentColor" />
    </symbol>

    <symbol id="percent" width="100%" height="100%" viewBox="0 0 48 50">
      <path fill-rule="evenodd" clip-rule="evenodd" d="M24.5639 0.240558C24.3431 0.01033 24.0046 -0.0625677 23.7086 0.0563998C23.4127 0.175367 23.2187 0.462305 23.2187 0.781276V3.1378C10.6362 3.5499 0.5625 13.8798 0.5625 26.5625C0.5625 39.5067 11.0558 50 24 50C36.9442 50 47.4375 39.5067 47.4375 26.5625C47.4375 20.0932 44.8153 14.2347 40.5777 9.99463C40.2754 9.6921 39.7859 9.68894 39.4797 9.98756L35.5639 13.8059C35.414 13.9521 35.3291 14.1524 35.3281 14.3617C35.3272 14.5711 35.4103 14.7721 35.5589 14.9197C38.5534 17.8927 40.4062 22.0105 40.4062 26.5625C40.4062 35.6234 33.0609 42.9688 24 42.9688C14.9391 42.9688 7.59375 35.6234 7.59375 26.5625C7.59375 17.7635 14.5206 10.5823 23.2187 10.1745V12.1094C23.2187 12.4274 23.4115 12.7136 23.7061 12.8333C24.0007 12.9529 24.3385 12.882 24.5601 12.654L30.0289 7.02899C30.3222 6.72727 30.3239 6.24742 30.0326 5.94368L24.5639 0.240558ZM24.7812 3.90627V2.72479L28.3828 6.48066L24.7812 10.1851V9.37502C24.7812 8.94355 24.4315 8.59377 24 8.59377C14.0761 8.59377 6.03125 16.6387 6.03125 26.5625C6.03125 36.4864 14.0761 44.5313 24 44.5313C33.9239 44.5313 41.9687 36.4864 41.9687 26.5625C41.9687 21.863 40.1637 17.5838 37.2108 14.3824L40.0084 11.6544C43.6489 15.5618 45.875 20.8015 45.875 26.5625C45.875 38.6437 36.0812 48.4375 24 48.4375C11.9188 48.4375 2.125 38.6437 2.125 26.5625C2.125 14.4813 11.9188 4.68752 24 4.68752C24.4315 4.68752 24.7812 4.33775 24.7812 3.90627ZM32.3649 18.9788C32.67 19.2839 32.67 19.7786 32.3649 20.0837L16.7399 35.7087C16.4348 36.0138 15.9402 36.0138 15.6351 35.7087C15.33 35.4036 15.33 34.9089 15.6351 34.6038L31.2601 18.9788C31.5652 18.6737 32.0598 18.6737 32.3649 18.9788ZM20.875 22.2656C20.875 23.3443 20.0006 24.2188 18.9219 24.2188C17.8432 24.2188 16.9687 23.3443 16.9687 22.2656C16.9687 21.187 17.8432 20.3125 18.9219 20.3125C20.0006 20.3125 20.875 21.187 20.875 22.2656ZM22.4375 22.2656C22.4375 24.2073 20.8635 25.7813 18.9219 25.7813C16.9802 25.7813 15.4062 24.2073 15.4062 22.2656C15.4062 20.324 16.9802 18.75 18.9219 18.75C20.8635 18.75 22.4375 20.324 22.4375 22.2656ZM31.0312 32.4219C31.0312 33.5006 30.1568 34.375 29.0781 34.375C27.9994 34.375 27.125 33.5006 27.125 32.4219C27.125 31.3432 27.9994 30.4688 29.0781 30.4688C30.1568 30.4688 31.0312 31.3432 31.0312 32.4219ZM32.5937 32.4219C32.5937 34.3635 31.0197 35.9375 29.0781 35.9375C27.1365 35.9375 25.5625 34.3635 25.5625 32.4219C25.5625 30.4803 27.1365 28.9063 29.0781 28.9063C31.0197 28.9063 32.5937 30.4803 32.5937 32.4219Z" fill="currentColor" />
    </symbol>

    <symbol id="plus" width="100%" height="100%" viewBox="0 0 60 60">
      <path d="M0 29.5H60M30 0V60" stroke="currentColor" />
    </symbol>

    <symbol id="check" width="100%" height="100%" viewBox="0 0 16 16">
      <path d="M8 14C11.3137 14 14 11.3137 14 8C14 4.68629 11.3137 2 8 2C4.68629 2 2 4.68629 2 8C2 11.3137 4.68629 14 8 14Z" fill="currentColor" stroke="currentColor" stroke-width="1.4" stroke-linecap="round" stroke-linejoin="round" />
      <path d="M6 8.00033L7.33333 9.33366L10 6.66699" fill="transparent" stroke="white" stroke-width="1.4" stroke-linecap="round" stroke-linejoin="round" />
    </symbol>

    <symbol id="minus" width="100%" height="100%" viewBox="0 0 16 16">
      <path fill-rule="evenodd" clip-rule="evenodd" d="M8 14.3996C11.5346 14.3996 14.4 11.5342 14.4 7.99961C14.4 4.46499 11.5346 1.59961 8 1.59961C4.46538 1.59961 1.6 4.46499 1.6 7.99961C1.6 11.5342 4.46538 14.3996 8 14.3996ZM5.6 7.19961C5.15817 7.19961 4.8 7.55778 4.8 7.99961C4.8 8.44144 5.15817 8.79961 5.6 8.79961H10.4C10.8418 8.79961 11.2 8.44144 11.2 7.99961C11.2 7.55778 10.8418 7.19961 10.4 7.19961H5.6Z" fill="currentColor" />
    </symbol>

    <symbol id="calc" width="100%" height="100%" viewBox="0 0 24 24">
      <path d="M4.31802 20.5355C5.63604 22 7.75736 22 12 22C16.2426 22 18.364 22 19.682 20.5355C21 19.0711 21 16.714 21 12C21 7.28595 21 4.92893 19.682 3.46447C18.364 2 16.2426 2 12 2C7.75736 2 5.63604 2 4.31802 3.46447C3 4.92893 3 7.28595 3 12C3 16.714 3 19.0711 4.31802 20.5355Z" fill="transparent" stroke="currentColor" stroke-width="1.5" />
      <path d="M7 8C7 7.53501 7 7.30252 7.05111 7.11177C7.18981 6.59413 7.59413 6.18981 8.11177 6.05111C8.30252 6 8.53501 6 9 6H15C15.465 6 15.6975 6 15.8882 6.05111C16.4059 6.18981 16.8102 6.59413 16.9489 7.11177C17 7.30252 17 7.53501 17 8C17 8.46499 17 8.69748 16.9489 8.88823C16.8102 9.40587 16.4059 9.81019 15.8882 9.94889C15.6975 10 15.465 10 15 10H9C8.53501 10 8.30252 10 8.11177 9.94889C7.59413 9.81019 7.18981 9.40587 7.05111 8.88823C7 8.69748 7 8.46499 7 8Z" fill="transparent" stroke="currentColor" stroke-width="1.5" />
      <circle cx="8" cy="13" r="1" fill="currentColor" />
      <circle cx="8" cy="17" r="1" fill="currentColor" />
      <circle cx="12" cy="13" r="1" fill="currentColor" />
      <circle cx="12" cy="17" r="1" fill="currentColor" />
      <circle cx="16" cy="13" r="1" fill="currentColor" />
      <circle cx="16" cy="17" r="1" fill="currentColor" />
    </symbol>

    <symbol id="pdf" width="100%" height="100%" viewBox="0 0 24 24">
      <path d="M4.5 12V3.75C4.5 3.55109 4.57902 3.36032 4.71967 3.21967C4.86032 3.07902 5.05109 3 5.25 3H14.25L19.5 8.25V12" fill="transparent" stroke="currentColor" stroke-width="1.5" stroke-linecap="round" stroke-linejoin="round" />
      <path d="M14.25 3V8.25H19.5" fill="transparent" stroke="currentColor" stroke-width="1.5" stroke-linecap="round" stroke-linejoin="round" />
      <path d="M4.5 18.75H6C6.39782 18.75 6.77936 18.592 7.06066 18.3107C7.34196 18.0294 7.5 17.6478 7.5 17.25C7.5 16.8522 7.34196 16.4706 7.06066 16.1893C6.77936 15.908 6.39782 15.75 6 15.75H4.5V20.25" fill="transparent" stroke="currentColor" stroke-width="1.5" stroke-linecap="round" stroke-linejoin="round" />
      <path d="M20.25 15.75H17.625V20.25" fill="transparent" stroke="currentColor" stroke-width="1.5" stroke-linecap="round" stroke-linejoin="round" />
      <path d="M19.875 18.375H17.625" fill="transparent" stroke="currentColor" stroke-width="1.53125" stroke-linecap="round" stroke-linejoin="round" />
      <path d="M12 20.25C12.5967 20.25 13.169 20.0129 13.591 19.591C14.0129 19.169 14.25 18.5967 14.25 18C14.25 17.4033 14.0129 16.831 13.591 16.409C13.169 15.9871 12.5967 15.75 12 15.75H10.6875V20.25H12Z" fill="transparent" stroke="currentColor" stroke-width="1.5" stroke-linecap="round" stroke-linejoin="round" />
    </symbol>

    <symbol id="filter" width="100%" height="100%" viewBox="0 0 20 20">
      <path d="M16.6679 6.8165V2.49984C16.6679 2.27882 16.5801 2.06686 16.4238 1.91058C16.2675 1.7543 16.0556 1.6665 15.8346 1.6665C15.6136 1.6665 15.4016 1.7543 15.2453 1.91058C15.089 2.06686 15.0012 2.27882 15.0012 2.49984V6.8165C14.5186 6.99167 14.1016 7.31119 13.8069 7.73164C13.5122 8.15209 13.3542 8.65307 13.3542 9.1665C13.3542 9.67994 13.5122 10.1809 13.8069 10.6014C14.1016 11.0218 14.5186 11.3413 15.0012 11.5165V17.4998C15.0012 17.7209 15.089 17.9328 15.2453 18.0891C15.4016 18.2454 15.6136 18.3332 15.8346 18.3332C16.0556 18.3332 16.2675 18.2454 16.4238 18.0891C16.5801 17.9328 16.6679 17.7209 16.6679 17.4998V11.5165C17.1505 11.3413 17.5675 11.0218 17.8622 10.6014C18.1569 10.1809 18.315 9.67994 18.315 9.1665C18.315 8.65307 18.1569 8.15209 17.8622 7.73164C17.5675 7.31119 17.1505 6.99167 16.6679 6.8165ZM15.8346 9.99984C15.6697 9.99984 15.5086 9.95096 15.3716 9.8594C15.2345 9.76783 15.1277 9.63768 15.0647 9.48541C15.0016 9.33314 14.9851 9.16558 15.0172 9.00393C15.0494 8.84228 15.1288 8.69379 15.2453 8.57725C15.3619 8.4607 15.5103 8.38134 15.672 8.34918C15.8336 8.31703 16.0012 8.33353 16.1535 8.3966C16.3057 8.45968 16.4359 8.56649 16.5275 8.70353C16.619 8.84057 16.6679 9.00169 16.6679 9.1665C16.6679 9.38752 16.5801 9.59948 16.4238 9.75576C16.2675 9.91204 16.0556 9.99984 15.8346 9.99984ZM10.8346 11.8165V2.49984C10.8346 2.27882 10.7468 2.06686 10.5905 1.91058C10.4342 1.7543 10.2222 1.6665 10.0012 1.6665C9.78022 1.6665 9.56826 1.7543 9.41198 1.91058C9.2557 2.06686 9.1679 2.27882 9.1679 2.49984V11.8165C8.68527 11.9917 8.26828 12.3112 7.9736 12.7316C7.67892 13.1521 7.52083 13.6531 7.52083 14.1665C7.52083 14.6799 7.67892 15.1809 7.9736 15.6014C8.26828 16.0218 8.68527 16.3413 9.1679 16.5165V17.4998C9.1679 17.7209 9.2557 17.9328 9.41198 18.0891C9.56826 18.2454 9.78022 18.3332 10.0012 18.3332C10.2222 18.3332 10.4342 18.2454 10.5905 18.0891C10.7468 17.9328 10.8346 17.7209 10.8346 17.4998V16.5165C11.3172 16.3413 11.7342 16.0218 12.0289 15.6014C12.3235 15.1809 12.4816 14.6799 12.4816 14.1665C12.4816 13.6531 12.3235 13.1521 12.0289 12.7316C11.7342 12.3112 11.3172 11.9917 10.8346 11.8165ZM10.0012 14.9998C9.83641 14.9998 9.6753 14.951 9.53826 14.8594C9.40121 14.7678 9.2944 14.6377 9.23133 14.4854C9.16826 14.3331 9.15176 14.1656 9.18391 14.0039C9.21606 13.8423 9.29543 13.6938 9.41198 13.5772C9.52852 13.4607 9.677 13.3813 9.83866 13.3492C10.0003 13.317 10.1679 13.3335 10.3201 13.3966C10.4724 13.4597 10.6026 13.5665 10.6941 13.7035C10.7857 13.8406 10.8346 14.0017 10.8346 14.1665C10.8346 14.3875 10.7468 14.5995 10.5905 14.7558C10.4342 14.912 10.2222 14.9998 10.0012 14.9998ZM5.00123 5.14984V2.49984C5.00123 2.27882 4.91343 2.06686 4.75715 1.91058C4.60087 1.7543 4.38891 1.6665 4.1679 1.6665C3.94688 1.6665 3.73492 1.7543 3.57864 1.91058C3.42236 2.06686 3.33456 2.27882 3.33456 2.49984V5.14984C2.85194 5.32501 2.43495 5.64453 2.14027 6.06498C1.84558 6.48542 1.6875 6.9864 1.6875 7.49984C1.6875 8.01327 1.84558 8.51425 2.14027 8.9347C2.43495 9.35515 2.85194 9.67467 3.33456 9.84984V17.4998C3.33456 17.7209 3.42236 17.9328 3.57864 18.0891C3.73492 18.2454 3.94688 18.3332 4.1679 18.3332C4.38891 18.3332 4.60087 18.2454 4.75715 18.0891C4.91343 17.9328 5.00123 17.7209 5.00123 17.4998V9.84984C5.48386 9.67467 5.90085 9.35515 6.19553 8.9347C6.49021 8.51425 6.64829 8.01327 6.64829 7.49984C6.64829 6.9864 6.49021 6.48542 6.19553 6.06498C5.90085 5.64453 5.48386 5.32501 5.00123 5.14984ZM4.1679 8.33317C4.00308 8.33317 3.84196 8.2843 3.70492 8.19273C3.56788 8.10116 3.46107 7.97101 3.398 7.81874C3.33492 7.66647 3.31842 7.49891 3.35058 7.33726C3.38273 7.17561 3.4621 7.02713 3.57864 6.91058C3.69519 6.79404 3.84367 6.71467 4.00532 6.68252C4.16697 6.65036 4.33453 6.66686 4.4868 6.72994C4.63907 6.79301 4.76922 6.89982 4.86079 7.03686C4.95236 7.1739 5.00123 7.33502 5.00123 7.49984C5.00123 7.72085 4.91343 7.93281 4.75715 8.08909C4.60087 8.24537 4.38891 8.33317 4.1679 8.33317Z" fill="currentColor" />
    </symbol>

  </defs>
</svg>