<?xml version="1.0"?>
<svg xmlns="http://www.w3.org/2000/svg" xmlns:xlink="http://www.w3.org/1999/xlink" version="1.1" xml:space="preserve">
  <defs>

    <symbol id="loader" width="100%" height="100%" viewBox="22 22 44 44">
      <circle cx="44" cy="44" r="20.2" fill="none" stroke="currentColor" stroke-width="4"></circle>
    </symbol>

    <symbol id="burger" width="100%" height="100%" viewBox="0 0 48 48">
      <path d="M41,14H7a2,2,0,0,1,0-4H41A2,2,0,0,1,41,14Z" fill="currentColor" />
      <path d="M41,26H7a2,2,0,0,1,0-4H41A2,2,0,0,1,41,26Z" fill="currentColor" />
      <path d="M41,38H7a2,2,0,0,1,0-4H41A2,2,0,0,1,41,38Z" fill="currentColor" />
    </symbol>

    <symbol id="close" width="100%" height="100%" viewBox="0 0 16 16">
      <path d="M1 15L15 1M1 1L15 15" stroke="currentColor" stroke-width="2" stroke-linecap="round" stroke-linejoin="round" />
    </symbol>

    <symbol id="phone" width="100%" height="100%" viewBox="0 0 24 24">
      <path d="M8.67187 11.6998C9.44364 13.2935 10.7324 14.579 12.3281 15.3467C12.4458 15.4024 12.576 15.4265 12.7059 15.4167C12.8358 15.4068 12.9608 15.3633 13.0687 15.2904L15.4125 13.7248C15.516 13.6546 15.6357 13.6117 15.7603 13.6002C15.8849 13.5887 16.0104 13.609 16.125 13.6592L20.5125 15.5435C20.6625 15.6059 20.7877 15.7159 20.869 15.8565C20.9504 15.9971 20.9832 16.1606 20.9625 16.3217C20.8234 17.407 20.2937 18.4046 19.4723 19.1276C18.6509 19.8506 17.5943 20.2495 16.5 20.2498C13.1185 20.2498 9.87548 18.9065 7.48439 16.5154C5.0933 14.1243 3.75 10.8813 3.75 7.49979C3.75025 6.40553 4.1492 5.34886 4.87221 4.5275C5.59522 3.70613 6.59274 3.17635 7.67812 3.03729C7.83922 3.01659 8.00266 3.04943 8.14326 3.13074C8.28386 3.21206 8.39384 3.33733 8.45625 3.48729L10.3406 7.88416C10.3896 7.99699 10.4101 8.12013 10.4003 8.24275C10.3905 8.36537 10.3507 8.48369 10.2844 8.58729L8.71875 10.9685C8.64905 11.0762 8.60814 11.2 8.59993 11.328C8.59172 11.4561 8.61649 11.5841 8.67187 11.6998V11.6998Z" fill="transparent" stroke="currentColor" stroke-width="1.5" stroke-linecap="round" stroke-linejoin="round" />
    </symbol>

    <symbol id="email" width="100%" height="100%" viewBox="0 0 24 24">
      <path d="M2.25 7.125C2.25 6.47853 2.50681 5.85855 2.96393 5.40143C3.42105 4.94431 4.04103 4.6875 4.6875 4.6875H19.3125C19.959 4.6875 20.579 4.94431 21.0361 5.40143C21.4932 5.85855 21.75 6.47853 21.75 7.125V16.875C21.75 17.5215 21.4932 18.1415 21.0361 18.5986C20.579 19.0557 19.959 19.3125 19.3125 19.3125H4.6875C4.04103 19.3125 3.42105 19.0557 2.96393 18.5986C2.50681 18.1415 2.25 17.5215 2.25 16.875V7.125ZM4.6875 5.90625C4.36427 5.90625 4.05427 6.03465 3.82571 6.26321C3.59715 6.49177 3.46875 6.80177 3.46875 7.125V7.38947L12 12.5082L20.5312 7.38947V7.125C20.5312 6.80177 20.4028 6.49177 20.1743 6.26321C19.9457 6.03465 19.6357 5.90625 19.3125 5.90625H4.6875ZM20.5312 8.81053L14.7934 12.2535L20.5312 15.7842V8.81053ZM20.4898 17.1907L13.6161 12.9604L12 13.9293L10.3839 12.9604L3.51019 17.1894C3.57944 17.4488 3.73239 17.678 3.94527 17.8415C4.15815 18.005 4.41906 18.0937 4.6875 18.0938H19.3125C19.5808 18.0938 19.8416 18.0053 20.0544 17.842C20.2673 17.6787 20.4203 17.4498 20.4898 17.1907ZM3.46875 15.7842L9.20663 12.2535L3.46875 8.81053V15.7842Z" fill="currentColor" />
    </symbol>

    <symbol id="geo" width="100%" height="100%" viewBox="0 0 24 24">
      <path d="M17.0773 13.1456C16.4387 14.4399 15.5734 15.7294 14.6886 16.8872C13.8492 17.9787 12.9517 19.0243 12 20.0194C11.0483 19.0243 10.1508 17.9787 9.31144 16.8872C8.42663 15.7294 7.56131 14.4399 6.92269 13.1456C6.27675 11.8379 5.90625 10.6131 5.90625 9.5625C5.90625 7.94634 6.54827 6.39637 7.69107 5.25357C8.83387 4.11077 10.3838 3.46875 12 3.46875C13.6162 3.46875 15.1661 4.11077 16.3089 5.25357C17.4517 6.39637 18.0938 7.94634 18.0938 9.5625C18.0938 10.6131 17.722 11.8379 17.0773 13.1456ZM12 21.75C12 21.75 19.3125 14.8202 19.3125 9.5625C19.3125 7.6231 18.5421 5.76314 17.1707 4.39178C15.7994 3.02042 13.9394 2.25 12 2.25C10.0606 2.25 8.20064 3.02042 6.82928 4.39178C5.45792 5.76314 4.6875 7.6231 4.6875 9.5625C4.6875 14.8202 12 21.75 12 21.75Z" fill="currentColor" />
      <path d="M12 12C11.3535 12 10.7335 11.7432 10.2764 11.2861C9.81931 10.829 9.5625 10.209 9.5625 9.5625C9.5625 8.91603 9.81931 8.29605 10.2764 7.83893C10.7335 7.38181 11.3535 7.125 12 7.125C12.6465 7.125 13.2665 7.38181 13.7236 7.83893C14.1807 8.29605 14.4375 8.91603 14.4375 9.5625C14.4375 10.209 14.1807 10.829 13.7236 11.2861C13.2665 11.7432 12.6465 12 12 12ZM12 13.2188C12.9697 13.2188 13.8997 12.8335 14.5854 12.1479C15.271 11.4622 15.6562 10.5322 15.6562 9.5625C15.6562 8.5928 15.271 7.66282 14.5854 6.97714C13.8997 6.29146 12.9697 5.90625 12 5.90625C11.0303 5.90625 10.1003 6.29146 9.41464 6.97714C8.72896 7.66282 8.34375 8.5928 8.34375 9.5625C8.34375 10.5322 8.72896 11.4622 9.41464 12.1479C10.1003 12.8335 11.0303 13.2187 12 13.2188Z" fill="currentColor" />
    </symbol>

    <symbol id="basket" width="100%" height="100%" viewBox="0 0 24 24">
      <path d="M17.25 17.25H6.54375L3.92813 2.86875C3.89752 2.69653 3.80768 2.54042 3.67415 2.42743C3.54062 2.31444 3.37179 2.25168 3.19687 2.25H1.5" fill="transparent" stroke="currentColor" stroke-width="1.5" stroke-linecap="round" stroke-linejoin="round" />
      <path d="M7.5 21C8.53553 21 9.375 20.1605 9.375 19.125C9.375 18.0895 8.53553 17.25 7.5 17.25C6.46447 17.25 5.625 18.0895 5.625 19.125C5.625 20.1605 6.46447 21 7.5 21Z" fill="transparent" stroke="currentColor" stroke-width="1.5" stroke-linecap="round" stroke-linejoin="round" />
      <path d="M17.25 21C18.2855 21 19.125 20.1605 19.125 19.125C19.125 18.0895 18.2855 17.25 17.25 17.25C16.2145 17.25 15.375 18.0895 15.375 19.125C15.375 20.1605 16.2145 21 17.25 21Z" fill="transparent" stroke="currentColor" stroke-width="1.5" stroke-linecap="round" stroke-linejoin="round" />
      <path d="M5.85938 13.5H17.6344C17.985 13.5011 18.3247 13.3785 18.5939 13.1539C18.8631 12.9293 19.0445 12.617 19.1063 12.2719L20.25 6H4.5" fill="transparent" stroke="currentColor" stroke-width="1.5" stroke-linecap="round" stroke-linejoin="round" />
    </symbol>

    <symbol id="user" width="100%" height="100%" viewBox="0 0 24 24">
      <path d="M15.9375 9.375C15.9375 10.4193 15.5227 11.4208 14.7842 12.1592C14.0458 12.8977 13.0443 13.3125 12 13.3125C10.9557 13.3125 9.95419 12.8977 9.21577 12.1592C8.47734 11.4208 8.0625 10.4193 8.0625 9.375C8.0625 8.33071 8.47734 7.32919 9.21577 6.59077C9.95419 5.85234 10.9557 5.4375 12 5.4375C13.0443 5.4375 14.0458 5.85234 14.7842 6.59077C15.5227 7.32919 15.9375 8.33071 15.9375 9.375Z" fill="currentColor" />
      <path fill-rule="evenodd" clip-rule="evenodd" d="M1.5 12C1.5 9.21523 2.60625 6.54451 4.57538 4.57538C6.54451 2.60625 9.21523 1.5 12 1.5C14.7848 1.5 17.4555 2.60625 19.4246 4.57538C21.3938 6.54451 22.5 9.21523 22.5 12C22.5 14.7848 21.3938 17.4555 19.4246 19.4246C17.4555 21.3938 14.7848 22.5 12 22.5C9.21523 22.5 6.54451 21.3938 4.57538 19.4246C2.60625 17.4555 1.5 14.7848 1.5 12ZM12 2.8125C10.2698 2.81259 8.57486 3.30123 7.11015 4.22216C5.64545 5.1431 4.47056 6.4589 3.7207 8.01813C2.97085 9.57736 2.67651 11.3166 2.87156 13.0358C3.06661 14.7549 3.74313 16.384 4.82325 17.7356C5.75513 16.2341 7.80656 14.625 12 14.625C16.1934 14.625 18.2436 16.2328 19.1768 17.7356C20.2569 16.384 20.9334 14.7549 21.1284 13.0358C21.3235 11.3166 21.0292 9.57736 20.2793 8.01813C19.5294 6.4589 18.3545 5.1431 16.8898 4.22216C15.4251 3.30123 13.7302 2.81259 12 2.8125Z" fill="currentColor" />
    </symbol>

    <symbol id="success" width="100%" height="100%" viewBox="0 0 68 68">
      <path fill-rule="evenodd" clip-rule="evenodd" d="M34 68C52.7777 68 68 52.7777 68 34C68 15.2223 52.7777 0 34 0C15.2223 0 0 15.2223 0 34C0 52.7777 15.2223 68 34 68ZM49.7552 28.5052C51.4149 26.8455 51.4149 24.1545 49.7552 22.4948C48.0955 20.8351 45.4045 20.8351 43.7448 22.4948L29.75 36.4896L24.2552 30.9948C22.5955 29.3351 19.9045 29.3351 18.2448 30.9948C16.5851 32.6545 16.5851 35.3455 18.2448 37.0052L26.7448 45.5052C28.4045 47.1649 31.0955 47.1649 32.7552 45.5052L49.7552 28.5052Z" fill="currentColor" />
    </symbol>

    <symbol id="search" width="100%" height="100%" viewBox="0 0 24 24">
      <path d="M21.7094 20.2894L17.9994 16.6094C19.4395 14.8138 20.1369 12.5347 19.9482 10.2407C19.7595 7.94672 18.6991 5.8122 16.9849 4.27606C15.2708 2.73992 13.0332 1.91893 10.7323 1.98189C8.43145 2.04485 6.24214 2.98698 4.61456 4.61456C2.98698 6.24214 2.04485 8.43145 1.98189 10.7323C1.91893 13.0332 2.73992 15.2708 4.27606 16.9849C5.8122 18.6991 7.94672 19.7595 10.2407 19.9482C12.5347 20.1369 14.8138 19.4395 16.6094 17.9994L20.2894 21.6794C20.3824 21.7731 20.493 21.8475 20.6148 21.8983C20.7367 21.9491 20.8674 21.9752 20.9994 21.9752C21.1314 21.9752 21.2621 21.9491 21.384 21.8983C21.5059 21.8475 21.6165 21.7731 21.7094 21.6794C21.8897 21.493 21.9904 21.2438 21.9904 20.9844C21.9904 20.7251 21.8897 20.4759 21.7094 20.2894ZM10.9994 17.9994C9.61495 17.9994 8.26157 17.5889 7.11042 16.8197C5.95928 16.0505 5.06207 14.9573 4.53226 13.6782C4.00245 12.3991 3.86382 10.9917 4.13392 9.63378C4.40402 8.27592 5.0707 7.02864 6.04967 6.04967C7.02864 5.0707 8.27592 4.40402 9.63378 4.13392C10.9917 3.86382 12.3991 4.00245 13.6782 4.53226C14.9573 5.06207 16.0505 5.95928 16.8197 7.11042C17.5889 8.26157 17.9994 9.61495 17.9994 10.9994C17.9994 12.8559 17.2619 14.6364 15.9492 15.9492C14.6364 17.2619 12.8559 17.9994 10.9994 17.9994Z" fill="#ECECE7" />
    </symbol>

    <symbol id="arrow-left" width="100%" height="100%" viewBox="0 0 22 22">
      <path d="M13.625 5.75L8.375 11L13.625 16.25" fill="transparent" stroke="currentColor" stroke-width="1.96875" stroke-linecap="round" />
    </symbol>

    <symbol id="arrow-right" width="100%" height="100%" viewBox="0 0 22 22">
      <path d="M8.375 5.75L13.625 11L8.375 16.25" fill="transparent" stroke="currentColor" stroke-width="1.96875" stroke-linecap="round" />
    </symbol>

  </defs>
</svg>