<?xml version="1.0" standalone="no"?>
<!DOCTYPE svg PUBLIC "-//W3C//DTD SVG 20010904//EN"
 "http://www.w3.org/TR/2001/REC-SVG-20010904/DTD/svg10.dtd">
<svg version="1.0" xmlns="http://www.w3.org/2000/svg"
 width="260.000000pt" height="260.000000pt" viewBox="0 0 260.000000 260.000000"
 preserveAspectRatio="xMidYMid meet">
<metadata>
Created by potrace 1.14, written by Peter Selinger 2001-2017
</metadata>
<g transform="translate(0.000000,260.000000) scale(0.100000,-0.100000)"
fill="#000000" stroke="none">
<path d="M1820 1580 c-12 -8 -15 -43 -16 -205 -1 -208 2 -222 47 -230 52 -10
56 10 55 228 -1 164 -4 199 -16 207 -19 12 -51 12 -70 0z"/>
<path d="M266 1442 c-12 -13 -19 -13 -28 -4 -15 15 -60 16 -76 0 -17 -17 -17
-259 0 -276 16 -16 63 -15 76 1 6 7 12 48 14 91 3 83 7 89 59 100 20 4 28 13
31 35 8 52 -42 87 -76 53z"/>
<path d="M1125 1440 c-19 -10 -35 -14 -35 -9 0 15 -47 21 -69 9 -20 -10 -21
-19 -21 -138 0 -138 5 -152 50 -152 43 0 50 16 50 116 0 76 3 93 16 98 33 13
44 -13 44 -103 0 -94 8 -111 50 -111 43 0 50 16 50 116 0 76 3 93 16 98 33 13
44 -13 44 -103 0 -94 8 -111 50 -111 44 0 50 15 50 136 0 125 -9 147 -66 163
-34 10 -94 -9 -94 -30 0 -8 -7 -6 -19 5 -33 30 -76 36 -116 16z"/>
<path d="M411 1424 c-77 -64 -74 -191 5 -253 29 -23 83 -28 116 -10 14 8 23 8
31 0 16 -16 63 -13 78 5 9 11 14 51 14 128 2 134 -9 162 -58 152 -37 -8 -47
-8 -108 0 -40 5 -50 2 -78 -22z m138 -98 c12 -25 12 -33 -2 -55 -31 -51 -90
-32 -90 29 0 64 65 82 92 26z"/>
<path d="M720 1443 c-8 -3 -18 -10 -21 -15 -11 -17 -3 -202 9 -224 31 -57 144
-78 200 -37 42 31 52 60 52 160 0 114 -21 144 -81 113 -17 -9 -19 -22 -19
-101 0 -74 -3 -91 -16 -96 -37 -14 -49 10 -50 102 -2 101 -16 120 -74 98z"/>
<path d="M1483 1433 c-16 -16 -18 -39 -16 -198 0 -99 1 -183 2 -188 1 -4 13
-12 27 -18 20 -7 32 -6 50 6 21 13 24 23 24 76 0 55 2 60 18 53 9 -5 36 -8 60
-8 54 0 96 39 113 106 31 115 -74 223 -169 176 -24 -13 -32 -13 -47 -1 -25 18
-42 16 -62 -4z m160 -85 c26 -20 29 -66 6 -89 -22 -22 -32 -23 -60 -9 -37 20
-17 110 25 110 7 0 20 -6 29 -12z"/>
<path d="M1966 1434 c-20 -19 -22 -186 -3 -223 31 -61 112 -83 184 -51 58 25
69 55 68 176 -1 101 -7 114 -51 114 -36 0 -48 -27 -50 -109 -2 -104 -1 -101
-28 -101 -31 0 -36 15 -36 110 0 68 -3 81 -19 90 -27 14 -47 13 -65 -6z"/>
<path d="M2312 1435 c-37 -16 -62 -62 -54 -101 4 -24 30 -46 85 -74 27 -14 32
-38 6 -31 -8 2 -30 5 -50 8 -31 5 -37 2 -42 -17 -8 -32 1 -47 35 -59 81 -28
152 0 164 64 8 45 -13 78 -67 106 -48 24 -41 46 8 27 25 -9 35 -9 47 1 58 48
-51 110 -132 76z"/>
</g>
</svg>
